<?xml version="1.0" encoding="UTF-8" standalone="no"?>
<svg width="129px" height="129px" viewBox="0 0 129 129" version="1.1" xmlns="http://www.w3.org/2000/svg" xmlns:xlink="http://www.w3.org/1999/xlink" xmlns:sketch="http://www.bohemiancoding.com/sketch/ns">
    <!-- Generator: Sketch 3.3.1 (12002) - http://www.bohemiancoding.com/sketch -->
    <title>logo</title>
    <desc>Created with Sketch.</desc>
    <defs></defs>
    <g id="Sprite" stroke="none" stroke-width="1" fill="none" fill-rule="evenodd" sketch:type="MSPage">
        <g id="Icons" sketch:type="MSArtboardGroup">
            <path d="M64.0156069,13.2057906 C50.4596278,13.2057906 37.7099734,18.4813927 28.1157849,28.0611623 C18.5204655,37.6417801 13.2253556,50.3852147 13.2058477,63.9443037 C13.1654184,91.961822 35.9265598,114.788555 63.9440781,114.828984 L64.0189996,114.828984 C77.5749786,114.828984 90.3246331,109.553099 99.9188215,99.9733298 C109.514141,90.392712 114.809251,77.6492775 114.828759,64.0904712 C114.848267,50.518377 109.581429,37.7506283 99.9982666,28.1400419 C90.4148215,18.5288901 77.6626226,13.2252984 64.0905284,13.2057906 L64.0156069,13.2057906 Z M64.0189996,118.034492 L63.9395545,118.034492 C34.1544551,117.991518 9.95708333,93.7245969 10.0000572,63.9394974 C10.0206959,49.5251728 15.6499839,35.9776754 25.8506121,25.7928796 C36.0503922,15.6086492 49.6041095,10 64.0156069,10 L64.0950519,10.0002827 C78.5235126,10.0209215 92.0803399,15.6592565 102.268246,25.8762827 C112.455869,36.0935916 118.055188,49.666534 118.034549,64.0952775 C118.013628,78.5093194 112.384623,92.0568168 102.183994,102.241895 C91.9842142,112.426126 78.4302142,118.034492 64.0189996,118.034492 L64.0189996,118.034492 Z" id="Fill-372" opacity="0.4" fill="#007EFF" sketch:type="MSShapeGroup"></path>
            <path d="M63.8985526,19.1429634 C39.2556102,19.1429634 19.1783537,39.1919476 19.1430134,63.8354555 C19.1073903,88.5145864 39.1563746,108.621529 63.8355055,108.657152 L63.9013799,108.657152 C88.5443223,108.657152 108.621579,88.6078848 108.656919,63.964377 C108.674165,52.0094555 104.034971,40.7633194 95.5934427,32.2974764 C87.1521966,23.8319162 75.9193485,19.1602094 63.964427,19.1429634 L63.8985526,19.1429634 Z M63.9013799,111.86266 L63.830982,111.86266 C37.3842699,111.824492 15.899338,90.277644 15.9372228,63.8309319 C15.9753903,37.4223874 37.4905736,15.9371728 63.8985526,15.9371728 L63.9689505,15.9374555 C76.7802385,15.9558325 88.8177149,20.962 97.8634218,30.034 C106.909411,39.106 111.881087,51.1578953 111.86271,63.9691832 C111.824542,90.3777277 90.3093589,111.86266 63.9013799,111.86266 L63.9013799,111.86266 Z" id="Fill-373" opacity="0.6" fill="#007EFF" sketch:type="MSShapeGroup"></path>
            <path d="M63.9571525,105.870885 L63.8966499,105.870885 C54.3115085,105.857032 45.2946394,102.694215 37.8208698,96.7245291 C30.5690373,90.9318275 25.3824928,82.8010107 23.2171211,73.8293772 C22.8996237,72.5141521 22.6434771,71.1664139 22.4554666,69.8234819 C22.3327651,68.9467594 22.9437284,68.1364767 23.8204509,68.0137751 C24.6971734,67.8907908 25.5074562,68.5023196 25.6301577,69.3790422 C25.8037494,70.6187804 26.0401054,71.8630422 26.3332886,73.0773354 C28.3327022,81.3605395 33.1228698,88.869084 39.821697,94.2198903 C46.7226708,99.7321312 55.0491316,102.652372 63.9011734,102.665095 L63.9571525,102.665095 C73.345519,102.665095 82.3968803,99.26366 89.450807,93.0827804 C96.4546918,86.9460055 101.014158,78.5140893 102.288954,69.3405919 C102.410807,68.4638694 103.220524,67.8514924 104.096964,67.9736285 C104.973969,68.0954819 105.585781,68.9049165 105.463927,69.7819217 C104.083111,79.7182045 99.1464928,88.8495762 91.5633096,95.4941207 C83.9249954,102.186728 74.1224405,105.870885 63.9571525,105.870885" id="Fill-374" opacity="0.8" fill="#007EFF" sketch:type="MSShapeGroup"></path>
            <path d="M103.307383,56.9658639 C102.571174,56.9658639 101.908189,56.4558325 101.743645,55.7071832 C99.8810688,47.2444503 95.1327442,39.5510052 88.3731317,34.0441361 C81.5173935,28.4583874 72.8621264,25.3752984 64.0010374,25.3625759 L63.9459065,25.3625759 C55.1051736,25.3625759 46.4634772,28.419089 39.6063254,33.9720419 C32.8314458,39.458555 28.0605034,47.1370157 26.1727652,55.5929634 C25.9796657,56.4569634 25.1230165,57.0012042 24.2590165,56.8081047 C23.3952992,56.615288 22.8510584,55.758356 23.0441578,54.894356 C25.0888071,45.7355602 30.2544301,37.4204084 37.5888175,31.4809738 C45.0145243,25.4671832 54.3737704,22.1570681 63.9459065,22.1570681 L64.0058437,22.1570681 C73.6005976,22.1709215 82.9734144,25.5098743 90.3979903,31.5587225 C97.7156971,37.5207749 102.857006,45.8520419 104.874231,55.0181885 C105.064503,55.8827539 104.518001,56.7377068 103.653435,56.9279791 C103.537519,56.9537068 103.421603,56.9658639 103.307383,56.9658639" id="Fill-375" fill="#007EFF" sketch:type="MSShapeGroup"></path>
            <path d="M77.3358243,56.8683246 C76.8291855,56.8683246 76.330463,56.6285759 76.0191855,56.1813089 C73.3109866,52.292178 68.8696986,49.9665026 64.1386201,49.9594346 L64.1176986,49.9594346 C59.3778557,49.9594346 54.9303478,52.2842618 52.2167771,56.1813089 C51.7109866,56.9079058 50.7118452,57.0865864 49.9855311,56.5807958 C49.2589342,56.0750052 49.0802536,55.0758639 49.5860441,54.3495497 C52.8987038,49.592178 58.3298033,46.7539267 64.1174159,46.7539267 L64.1431436,46.7539267 C69.9208609,46.7621257 75.3437614,49.6017906 78.6496358,54.3495497 C79.1557091,55.0758639 78.9767457,56.0750052 78.2504316,56.5807958 C77.9713845,56.7750262 77.651908,56.8683246 77.3358243,56.8683246" id="Fill-376" fill="#007EFF" sketch:type="MSShapeGroup"></path>
            <path d="M59.9496228,56.7439267 C59.3327223,56.7439267 58.7449422,56.3857173 58.4811621,55.7846492 C58.1252144,54.9740838 58.4941673,54.0286597 59.3047328,53.6729948 C60.7893087,53.0213194 62.3592668,52.6910995 63.9702197,52.6910995 L63.987183,52.6910995 C65.5913506,52.6933613 67.1548061,53.0238639 68.6340103,53.6729948 C69.4445757,54.0286597 69.8132459,54.9743665 69.4575809,55.7849319 C69.1016333,56.5954974 68.1562092,56.9638848 67.3456438,56.6085026 C66.27356,56.1377696 65.1421045,55.8985864 63.9826595,55.8968901 C62.8116228,55.8957592 61.6728165,56.1346597 60.5928165,56.6085026 C60.3833192,56.7003874 60.1647747,56.7439267 59.9496228,56.7439267" id="Fill-377" fill="#007EFF" sketch:type="MSShapeGroup"></path>
            <path d="M84.1562998,56.7108482 C83.547881,56.7108482 82.9663207,56.3628168 82.6971689,55.7730576 C79.3666977,48.4745759 72.0368338,43.7514136 64.0236296,43.739822 L63.9942265,43.739822 C55.9674516,43.739822 48.6288234,48.4604398 45.2918495,55.7730576 C44.9243103,56.5782513 43.9735145,56.9330681 43.168038,56.5658115 C42.3628443,56.1982723 42.0080275,55.2474764 42.3752841,54.4422827 C46.2319019,45.9908586 54.7161218,40.5340314 63.9942265,40.5340314 C64.0061008,40.5340314 64.0165616,40.5340314 64.0284359,40.5343141 C73.2912736,40.5476021 81.7639019,46.0066911 85.6134516,54.4422827 C85.9809909,55.2474764 85.6261741,56.1982723 84.8206977,56.5658115 C84.6049804,56.664199 84.3788024,56.7108482 84.1562998,56.7108482" id="Fill-378" fill="#007EFF" sketch:type="MSShapeGroup"></path>
            <path d="M90.6997985,56.8355288 C90.0345524,56.8355288 89.4128456,56.4182304 89.1844058,55.7538325 C85.4943116,45.0329948 75.3946152,37.8187644 64.0529189,37.8023665 L64.0139032,37.8023665 C52.6541126,37.8023665 42.5439555,45.0120733 38.8465105,55.7538325 C38.5584163,56.5909738 37.6463535,57.0359791 36.8094948,56.7478848 C35.9723535,56.4597906 35.5273482,55.5477277 35.8154425,54.7105864 C39.9578927,42.6756545 51.2868665,34.5968586 64.0139032,34.5968586 L64.0574425,34.5968586 C76.7649713,34.6152356 88.0809398,42.6982723 92.2154739,54.7105864 C92.5035681,55.5477277 92.0585629,56.4597906 91.2214215,56.7478848 C91.0486781,56.8072565 90.8728247,56.8355288 90.6997985,56.8355288" id="Fill-379" fill="#007EFF" sketch:type="MSShapeGroup"></path>
            <path d="M97.1566239,56.6774869 C96.4543411,56.6774869 95.8100165,56.2126911 95.6129589,55.5030576 C91.7091265,41.4398743 78.7836186,31.6036754 64.1804354,31.5824712 L64.1332207,31.5824712 C49.5062888,31.5824712 36.5669275,41.4124503 32.6554616,55.5030576 C32.4185401,56.3560314 31.535315,56.8556021 30.6823411,56.6186806 C29.8293673,56.3820419 29.3297966,55.498534 29.5667181,54.6455602 C33.8618385,39.1727225 48.0723202,28.3769634 64.1332207,28.3769634 L64.1849589,28.3769634 C80.2206972,28.3998639 94.4147809,39.2021257 98.7019851,54.6455602 C98.9386239,55.498534 98.4393359,56.3820419 97.5863621,56.6186806 C97.4430218,56.6585445 97.2985506,56.6774869 97.1566239,56.6774869" id="Fill-380" fill="#007EFF" sketch:type="MSShapeGroup"></path>
            <path d="M63.9162492,75.9486366 L63.8990031,75.9486366 C62.315757,75.9463748 60.7718094,75.6237884 59.3106994,74.9899246 C58.4987204,74.6373696 58.1260921,73.6936418 58.4783643,72.8813801 C58.8306366,72.069401 59.7746471,71.6967727 60.5866261,72.049045 C61.644291,72.5079036 62.7601968,72.7414324 63.9038094,72.742846 C65.0567518,72.756134 66.1780293,72.5112963 67.2433277,72.049045 C68.0553068,71.6967727 68.9993172,72.069401 69.3515895,72.8813801 C69.7038617,73.6936418 69.3312335,74.6376523 68.5189717,74.9899246 C67.05249,75.6260502 65.5040188,75.9486366 63.9162492,75.9486366" id="Fill-381" fill="#007EFF" sketch:type="MSShapeGroup"></path>
            <path d="M64.0944345,82.0104945 L64.0689895,82.0104945 C58.3099319,82.0020129 52.8963612,79.1711123 49.5876597,74.4374893 C49.0804555,73.7120233 49.2577225,72.712882 49.9831885,72.2056778 C50.7086544,71.6981909 51.7080785,71.8754579 52.2152827,72.6009239 C54.9257434,76.4787458 59.3588325,78.7979186 64.0737958,78.804704 L64.0944345,78.804704 C68.8181623,78.804704 73.2569057,76.4869448 75.9733037,72.6009239 C76.4805078,71.8754579 77.4799319,71.6981909 78.2053979,72.2056778 C78.9308639,72.712882 79.1078482,73.7120233 78.600644,74.4374893 C75.2851571,79.1807249 69.8636701,82.0104945 64.0944345,82.0104945" id="Fill-382" fill="#007EFF" sketch:type="MSShapeGroup"></path>
            <path d="M63.9817819,88.0726891 L63.9478552,88.0726891 C54.69774,88.0594011 46.2304835,82.6087938 42.3761275,74.1864902 C42.00774,73.3815792 42.3617086,72.4305006 43.1666196,72.0621132 C43.9712479,71.6937258 44.9226091,72.0474116 45.2909966,72.8526053 C48.6257086,80.1394954 55.9507662,84.8555896 63.9523788,84.8668985 L63.9817819,84.8668985 C71.9972479,84.8668985 79.3316353,80.1536315 82.6725672,72.8526053 C83.0409547,72.0476943 83.9920332,71.693443 84.7972269,72.0621132 C85.6021379,72.4305006 85.9561065,73.3815792 85.5877191,74.1864902 C81.726295,82.6246263 73.2471641,88.0726891 63.9817819,88.0726891" id="Fill-383" fill="#007EFF" sketch:type="MSShapeGroup"></path>
            <path d="M64.0089107,94.1346908 L63.9656542,94.1346908 C51.2685861,94.1163139 39.9562929,86.0417589 35.8158217,74.04245 C35.527162,73.2055914 35.9713191,72.2932458 36.8081777,72.0043034 C37.6450364,71.7156437 38.5573819,72.1598008 38.8463243,72.9966594 C42.5415076,83.7061882 52.638094,90.9127851 63.9701777,90.9289003 L64.0089107,90.9289003 C75.3596542,90.9289003 85.466984,83.7271097 89.1695181,72.9966594 C89.4581777,72.1600835 90.3705233,71.7159264 91.2073819,72.0043034 C92.0442406,72.2932458 92.4883976,73.2055914 92.199738,74.04245 C88.0516332,86.0646594 76.7257694,94.1346908 64.0089107,94.1346908" id="Fill-384" fill="#007EFF" sketch:type="MSShapeGroup"></path>
            <path d="M64.1278493,100.196739 L64.0763938,100.196739 C48.0516817,100.173556 33.8609906,89.3803414 29.5670011,73.9493466 C29.3295142,73.0966555 29.8285194,72.212865 30.6814932,71.975378 C31.5339016,71.7378911 32.4179749,72.2368964 32.6551791,73.0898702 C36.5655142,87.1414618 49.4881948,96.9700273 64.0809173,96.9909487 L64.1278493,96.9909487 C78.7448859,96.9909487 91.6817027,87.1688859 95.5993885,73.0898702 C95.8365927,72.2371791 96.7203833,71.7378911 97.5733571,71.975378 C98.4260482,72.212865 98.9250534,73.0966555 98.6878493,73.9493466 C94.3856608,89.4094618 80.1780063,100.196739 64.1278493,100.196739" id="Fill-385" fill="#007EFF" sketch:type="MSShapeGroup"></path>
            <path d="M31.9109948,59.0636649 L29.718199,64.6697696 L27.5375602,59.0636649 C27.5375602,59.0636649 26.8349948,58.9109948 25.8457487,58.9109948 C24.8562199,58.9109948 24.1361257,59.0636649 24.1361257,59.0636649 L28.4035393,69.7904398 C28.4035393,69.7904398 29.1012984,69.9473508 29.7179162,69.9473508 C30.3031518,69.9473508 31.0362513,69.7904398 31.0362513,69.7904398 L35.3036649,59.0636649 C35.3036649,59.0636649 34.4221361,58.9109948 33.5739686,58.9109948 C32.7260838,58.9109948 31.9109948,59.0636649 31.9109948,59.0636649" id="Fill-386" fill="#FFFFFF" sketch:type="MSShapeGroup"></path>
            <path d="M36.2931937,59.0636649 L36.2931937,69.7910052 C36.2931937,69.7910052 37.1031937,69.9473508 37.9270471,69.9473508 C38.7509005,69.9473508 39.5609005,69.7910052 39.5609005,69.7910052 L39.5609005,59.0636649 C39.5609005,59.0636649 38.795288,58.9109948 37.9273298,58.9109948 C37.059089,58.9109948 36.2931937,59.0636649 36.2931937,59.0636649" id="Fill-387" fill="#FFFFFF" sketch:type="MSShapeGroup"></path>
            <path d="M49.4112356,66.9151518 L45.8217906,66.9151518 L49.8955393,58.9109948 L41.4853927,58.9109948 C41.4853927,58.9109948 41.3298953,59.6370262 41.3298953,60.3246073 C41.3298953,61.0124712 41.4853927,61.760555 41.4853927,61.760555 L44.8896545,61.760555 L40.8167539,69.7630157 L49.4112356,69.764712 C49.4112356,69.764712 49.5675812,69.0771309 49.5675812,68.3468586 C49.5675812,67.6163037 49.4112356,66.9151518 49.4112356,66.9151518" id="Fill-388" fill="#FFFFFF" sketch:type="MSShapeGroup"></path>
            <path d="M58.3181257,58.9109948 L56.2918534,62.7339686 L54.2726492,58.9109948 L50.7120419,58.9109948 L54.658,65.9892356 L54.658,69.7016649 C54.658,69.7016649 55.4233298,69.8580105 56.2918534,69.8580105 C57.1600942,69.8580105 57.9254241,69.7016649 57.9254241,69.7016649 L57.9254241,65.9892356 L61.880712,58.9109948 L58.3181257,58.9109948 Z" id="Fill-389" fill="#FFFFFF" sketch:type="MSShapeGroup"></path>
            <path d="M66.8057382,66.9151518 L65.8540942,66.9151518 L65.8540942,61.760555 L66.8057382,61.760555 C67.9767749,61.760555 69.227822,62.4371099 69.227822,64.3378534 C69.227822,66.2383141 67.9767749,66.9151518 66.8057382,66.9151518 M66.8057382,58.9109948 L62.5863874,58.9109948 L62.5863874,69.764712 L66.8057382,69.764712 C70.1294241,69.764712 72.5424607,67.4825759 72.5424607,64.3378534 C72.5424607,61.1931309 70.1294241,58.9109948 66.8057382,58.9109948" id="Fill-390" fill="#FFFFFF" sketch:type="MSShapeGroup"></path>
            <path d="M77.1629948,61.760555 L78.3156545,61.760555 C78.5785864,61.760555 79.1898325,61.8453717 79.1898325,62.6350157 C79.1898325,63.424377 78.5785864,63.5091937 78.3156545,63.5091937 L77.1629948,63.5091937 L77.1629948,61.760555 Z M82.5044712,62.6350157 C82.5044712,60.4425026 80.7818429,58.9109948 78.3156545,58.9109948 L73.895288,58.9109948 L73.895288,69.7016649 C73.895288,69.7016649 74.6815393,69.8645131 75.5288586,69.8645131 C76.3758953,69.8645131 77.1629948,69.7016649 77.1629948,69.7016649 L77.1629948,66.3587539 L77.5130052,66.3587539 L79.6800733,69.7008168 C79.6800733,69.7008168 80.431267,69.8580105 81.288199,69.8580105 C82.1451309,69.8580105 83.3291728,69.7008168 83.3291728,69.7008168 L80.7578115,65.7429843 C81.8598639,65.0924398 82.5044712,63.9601361 82.5044712,62.6350157 L82.5044712,62.6350157 Z" id="Fill-391" fill="#FFFFFF" sketch:type="MSShapeGroup"></path>
            <path d="M88.9129424,67.1478325 C87.3492042,67.1478325 86.0811937,65.8801047 86.0811937,64.3160838 C86.0811937,62.7523455 87.3492042,61.4843351 88.9129424,61.4843351 C90.4769634,61.4843351 91.7446911,62.7523455 91.7446911,64.3160838 C91.7446911,65.8801047 90.4769634,67.1478325 88.9129424,67.1478325 M88.9129424,58.6282723 C85.7716126,58.6282723 83.2251309,61.1747539 83.2251309,64.3160838 C83.2251309,67.4574136 85.7716126,70.004178 88.9129424,70.004178 C92.0542723,70.004178 94.6010366,67.4574136 94.6010366,64.3160838 C94.6010366,61.1747539 92.0542723,58.6282723 88.9129424,58.6282723" id="Fill-392" fill="#FFFFFF" sketch:type="MSShapeGroup"></path>
            <path d="M99.2153508,61.760555 L100.290545,61.760555 C100.617089,61.760555 101.165005,61.8798639 101.165005,62.6810995 C101.165005,63.4826178 100.617089,63.6019267 100.290545,63.6019267 L99.2153508,63.6019267 L99.2153508,61.760555 Z M100.290545,58.9109948 L95.947644,58.9109948 L95.947644,69.7016649 L96.2747539,69.7587749 C96.6411623,69.8223874 97.1051099,69.8580105 97.5814974,69.8580105 C98.0573194,69.8580105 98.5218325,69.8223874 98.8882408,69.7587749 L99.2153508,69.7016649 L99.2153508,66.4514869 L100.290545,66.4514869 C102.75645,66.4514869 104.478796,64.9007539 104.478796,62.6810995 C104.478796,60.461445 102.75645,58.9109948 100.290545,58.9109948 L100.290545,58.9109948 Z" id="Fill-393" fill="#FFFFFF" sketch:type="MSShapeGroup"></path>
        </g>
    </g>
</svg>