<svg version="1.1" id="Layer_1" xmlns="http://www.w3.org/2000/svg" xmlns:xlink="http://www.w3.org/1999/xlink" x="0px" y="0px"
	 width="216.989px" height="29.594px" viewBox="-63.331 -10 216.989 29.594" enable-background="new -63.331 -10 216.989 29.594"
	 xml:space="preserve">
<g id="spritesvg">
	<path id="path-1" fill="#545454" d="M142.352,10.035h-2.901v8.247l-0.887,0.146c-0.987,0.161-2.242,0.25-3.525,0.25
		c-1.289,0-2.539-0.089-3.531-0.25l-0.881-0.146V-9.103h11.726c6.654,0,11.307,3.937,11.307,9.569
		C153.658,6.097,149.006,10.035,142.352,10.035z M142.352-1.872h-2.901v4.674h2.901c0.884,0,2.36-0.303,2.36-2.336
		C144.712-1.569,143.235-1.872,142.352-1.872z M122.818,3.361c-1.445,0-2.845-0.715-3.599-1.988
		c-1.324-2.243-3.839-3.643-6.56-3.645h-0.01c-2.729,0-5.245,1.397-6.574,3.645c-1.104,1.868-3.608,2.537-5.593,1.501
		c-1.984-1.038-2.699-3.391-1.597-5.255c2.779-4.7,8.051-7.62,13.764-7.62c0.005,0,0.012,0,0.02,0
		c5.702,0.007,10.967,2.927,13.741,7.62c1.104,1.864,0.386,4.217-1.599,5.255C124.182,3.207,123.497,3.361,122.818,3.361z
		 M106.073,8.219c1.327,2.247,3.841,3.644,6.563,3.648c0.005,0,0.01,0,0.015,0c2.722,0,5.243-1.399,6.569-3.648
		c1.104-1.864,3.608-2.536,5.593-1.5c1.984,1.038,2.702,3.391,1.594,5.255c-2.779,4.701-8.048,7.621-13.756,7.621
		c-0.01,0-0.02,0-0.024,0c-5.702-0.008-10.967-2.93-13.741-7.621c-1.101-1.869-0.386-4.219,1.599-5.255
		C102.463,5.683,104.971,6.355,106.073,8.219z M90.894,18.678c-2.312,0-4.34-0.396-4.34-0.396l-5.85-8.485h-0.946v8.485
		c0,0-2.124,0.414-4.412,0.414s-4.409-0.414-4.409-0.414V-9.103h11.933c6.657,0,11.31,3.887,11.31,9.45
		c0,3.366-1.741,6.236-4.716,7.889l6.941,10.045C96.404,18.281,93.211,18.678,90.894,18.678z M82.869-1.872h-3.111v4.438h3.111
		c0.711,0,2.36-0.214,2.36-2.219C85.229-1.655,83.58-1.872,82.869-1.872z M51.813,18.441H40.423V-9.103h11.389
		c8.976,0,15.49,5.793,15.49,13.774C67.303,12.652,60.788,18.441,51.813,18.441z M51.813-1.872h-2.567v13.084h2.567
		c3.164,0,6.541-1.72,6.541-6.541C58.354-0.152,54.977-1.872,51.813-1.872z M27.836,18.281c0,0-2.067,0.396-4.41,0.396
		c-2.346,0-4.412-0.396-4.412-0.396V8.862L8.362-9.103h9.613l5.452,9.702l5.469-9.702h9.619L27.836,8.862V18.281z M5.293,11.212
		c0,0,0.421,1.777,0.421,3.631c0,1.854-0.421,3.598-0.421,3.598l-23.204-0.002L-6.914-1.872h-9.191c0,0-0.421-1.896-0.421-3.643
		s0.421-3.588,0.421-3.588H6.6L-4.398,11.212H5.293z M-25.767,18.678c-2.224,0-4.409-0.396-4.409-0.396V-8.943
		c0,0,2.066-0.386,4.411-0.386c2.343,0,4.409,0.386,4.409,0.386v27.224C-21.355,18.281-23.542,18.678-25.767,18.678z
		 M-48.262,18.678c-1.663,0-3.547-0.396-3.547-0.396L-63.331-8.943c0,0,1.943-0.386,4.614-0.386s4.57,0.386,4.57,0.386l5.887,14.226
		l5.92-14.226c0,0,2.2-0.386,4.488-0.386c2.292,0,4.671,0.386,4.671,0.386l-11.521,27.224
		C-44.701,18.281-46.682,18.678-48.262,18.678z"/>
</g>
</svg>
